<svg width="44" height="14" viewBox="0 0 44 14" fill="none" xmlns="http://www.w3.org/2000/svg">
  <path d="M3.12854 13.7059H0.109332C0.0420929 13.7059 0 13.6638 0 13.5966V0.419836C0 0.352597 0.0420929 0.310504 0.109332 0.310504H3.12854C3.19578 0.310504 3.23788 0.352597 3.23788 0.419836V8.6613C3.23788 8.74112 3.29691 8.7597 3.35541 8.69246L6.88247 4.82101C7.20172 4.46841 7.62975 4.19945 8.17587 4.19945C9.12487 4.19945 9.80492 4.95549 9.80492 5.87934C9.80492 6.37462 9.6032 6.82835 9.27575 7.13065L7.26841 8.97017C7.22632 9.01226 7.22632 9.06255 7.26841 9.10464L9.27575 10.9442C9.6032 11.2465 9.80492 11.7002 9.80492 12.1955C9.80492 13.1193 9.12487 13.8748 8.17587 13.8748C7.62975 13.8748 7.20172 13.5977 6.88247 13.2533L3.35541 9.3818C3.29637 9.31456 3.23788 9.33096 3.23788 9.40859V13.5977C3.23788 13.6649 3.19578 13.707 3.12854 13.707V13.7059Z" fill="white"/>
  <path d="M10.7195 9.05326C10.7195 6.34893 12.7017 4.13167 15.5235 4.13167C16.6404 4.13167 17.5812 4.53456 18.3203 5.16486C18.3552 5.19602 18.3793 5.20695 18.4044 5.20695C18.4378 5.20695 18.4799 5.19 18.4799 5.12277V4.5351C18.4799 4.46786 18.522 4.42577 18.5892 4.42577H21.5789C21.6461 4.42577 21.6882 4.46786 21.6882 4.5351V13.5971C21.6882 13.6643 21.6461 13.7064 21.5789 13.7064H18.5892C18.522 13.7064 18.4799 13.6643 18.4799 13.5971V13.0094C18.4799 12.9422 18.4378 12.9253 18.4044 12.9253C18.3793 12.9253 18.3542 12.9335 18.329 12.9586C17.6069 13.6305 16.6409 14 15.5241 14C12.7022 14 10.72 11.7745 10.72 9.05326H10.7195ZM16.2287 11.3711C17.497 11.3711 18.5214 10.4052 18.5214 9.05326C18.5214 7.70137 17.497 6.74362 16.2287 6.74362C14.9605 6.74362 13.9278 7.71777 13.9278 9.05326C13.9278 10.3888 14.9441 11.3711 16.2287 11.3711Z" fill="white"/>
  <path d="M23.495 13.5971V4.5351C23.495 4.46786 23.5371 4.42577 23.6043 4.42577H26.594C26.6612 4.42577 26.7033 4.46786 26.7033 4.5351V5.19C26.7033 5.25724 26.7285 5.28239 26.7706 5.28239C26.7957 5.28239 26.8209 5.26544 26.8799 5.1982C27.3752 4.61054 28.2558 4.13167 29.3054 4.13167C30.4813 4.13167 31.3352 4.62968 31.8179 5.29879C31.8512 5.34088 31.8764 5.35783 31.9103 5.35783C31.9354 5.35783 31.9693 5.34088 32.0027 5.29879C32.5821 4.65209 33.5142 4.13167 34.6397 4.13167C36.9073 4.13167 38.058 5.61804 38.058 7.77681V13.5966C38.058 13.6638 38.0159 13.7059 37.9487 13.7059H34.959C34.8918 13.7059 34.8497 13.6638 34.8497 13.5966V8.18789C34.8497 7.27224 34.3374 6.74362 33.6153 6.74362C32.8932 6.74362 32.3804 7.27278 32.3804 8.18789V13.5966C32.3804 13.6638 32.3383 13.7059 32.2711 13.7059H29.2814C29.2141 13.7059 29.172 13.6638 29.172 13.5966V8.18789C29.172 7.27224 28.6598 6.74362 27.9377 6.74362C27.2155 6.74362 26.7033 7.27278 26.7033 8.18789V13.5966C26.7033 13.6638 26.6612 13.7059 26.594 13.7059H23.6043C23.5371 13.7059 23.495 13.6638 23.495 13.5966V13.5971Z" fill="white"/>
  <path d="M39.6116 1.78868C39.6116 0.755486 40.4344 0 41.4342 0C42.434 0 43.2398 0.756033 43.2398 1.78868C43.2398 2.82132 42.4166 3.5861 41.4342 3.5861C40.4519 3.5861 39.6116 2.83007 39.6116 1.78868ZM39.9309 13.7059H42.9206C42.9878 13.7059 43.0299 13.6638 43.0299 13.5966V4.5351C43.0299 4.46786 42.9878 4.42577 42.9206 4.42577H39.9309C39.8636 4.42577 39.8216 4.46786 39.8216 4.5351V13.5971C39.8216 13.6643 39.8636 13.7064 39.9309 13.7064V13.7059Z" fill="white"/>
</svg>
