<svg width="433" height="71" viewBox="0 0 433 71" fill="none" xmlns="http://www.w3.org/2000/svg">
<path d="M281.6 51.4L292.5 55C290.5 62.6 283.3 70.5 271.1 70.5C257.6 70.5 247 60.3 247 46.2C247 32 257.4 21.9 270.8 21.9C283.3 21.9 290.4 29.6 292.3 37.4L281.2 41.1C280.1 37.3 277.2 33.4 271 33.4C264.7 33.4 259.4 38 259.4 46.3C259.4 54.6 264.8 59.2 271.1 59.2C277.4 59.1 280.6 54.9 281.6 51.4ZM144.8 22C139.9 22 134.4 24.1 131.6 28.9V23.2H119.6V69H132V42.7C132 37.4 135.2 33.2 140.6 33.2C146.6 33.2 149.1 37.2 149.1 42.3V69H161.5V40.2C161.3 30.1 156.1 22 144.8 22ZM212.5 45.6C212.5 47.4 212.3 49.2 212.3 49.4H179.5C179.8 55.5 184.9 59.8 191.1 59.8C196.9 59.8 200 56.9 201.5 52.8L211.8 55.9C209.5 63.8 202.2 70.4 190.9 70.4C178.3 70.4 167.2 61.4 167.2 45.9C167.2 31.3 178 21.8 189.7 21.8C204 21.8 212.5 30.9 212.5 45.6ZM200.3 40.9C200.1 36.3 197.1 31.9 190.1 31.9C183.7 31.9 180.1 36.7 179.9 40.9H200.3ZM432.5 33.8V23.2H423.3V11.6H412.1V15.9C412.1 20 409.9 23.2 405 23.2H403.4V33.8H410.9V55.5C410.9 64.4 416.5 69.7 425.4 69.7C429 69.7 431.3 69 432.4 68.6V58.3C431.7 58.5 430.1 58.7 428.6 58.7C425.1 58.7 423.2 57.4 423.2 53.4V33.8H432.5ZM368.4 61.8C368.4 64.2 368.7 67.5 369 69.1H357.6C357.3 67.9 357.1 65.4 357.1 63.6C354.8 67.2 350.4 70.4 343.6 70.4C333.8 70.4 327.9 63.8 327.9 56.6C327.9 48.4 334 43.8 341.6 42.7L352.9 41C355.5 40.6 356.3 39.3 356.3 37.7C356.3 34.4 353.8 31.7 348.6 31.7C343.2 31.7 340.2 35.1 339.8 39.2L328.8 36.9C329.5 29.7 336.2 21.8 348.5 21.8C363 21.8 368.4 30 368.4 39.2V61.8ZM356.3 48.5L346 50.1C342.8 50.6 340.3 52.3 340.3 55.9C340.3 58.6 342.3 61.2 346.3 61.2C351.5 61.2 356.4 58.7 356.4 50.6V48.5H356.3ZM310 30V23.2H298V69H310.4V48C310.4 38.1 315.9 35.1 322.2 35.1C323.3 35.1 324.5 35.2 325.9 35.5V23C325 22.9 324 22.8 323 22.8C319.1 22.9 312.8 24 310 30ZM243.8 33.8V23.2H234.6V11.6H223.4V15.9C223.4 20 221.2 23.2 216.3 23.2H214.7V33.8H222.2V56.3C222.2 65.2 227.8 70.5 236.7 70.5C240.3 70.5 242.6 69.8 243.7 69.4V59.1C243 59.3 241.4 59.5 239.9 59.5C236.4 59.5 234.5 58.2 234.5 54.2V33.8H243.8ZM393.2 18.1C393.2 13.7 395.8 11.5 398.6 11.5C399.4 11.5 400.1 11.5 400.5 11.5V0.900002C399.5 0.900002 398.5 0.900002 397.3 0.900002C387.1 0.900002 380.6 7.6 380.6 17.9V23.2H373V33.8H380.6V69H393.1V33.8H400.6V23.2H393.1V18.1H393.2Z" fill="white"/>
<path d="M66.1 38.5C62.1 38.5 59.1 34.8 59.1 34.8L52.5 27.2L41.9 15.1C41.9 15.1 36.1 8 28.3 8C23 8 22.7 8 22.7 8V38.5C22.7 38.5 22.9 38.5 25.5 38.5C29.5 38.5 32.5 42.2 32.5 42.2L49.7 61.9C49.7 61.9 55.5 69 63.3 69C66.8 69 68.9 69 68.9 69V38.5C68.9 38.5 68.7 38.5 66.1 38.5Z" fill="white"/>
<path d="M91.2 38.4V22.3C91.2 15.3 86.8 11.6 83.6 9.9C82.9 9.5 82.2 9.2 81.4 8.9C80.9 8.7 80.5 8.6 80.5 8.6C79.3 8.3 78 8 76.5 8C69.1 8 68.9 8 68.9 8V38.5H91.2V38.4Z" fill="white"/>
<path d="M0.400024 38.5V54.7C0.400024 61.7 4.80002 65.4 8.00002 67.1C8.70002 67.5 9.40002 67.8 10.2 68.1C10.7 68.3 11.1 68.4 11.1 68.4C12.3 68.7 13.6 69 15.1 69C22.5 69 22.7 69 22.7 69V38.5H0.400024Z" fill="white"/>
</svg>
