<svg width="132" height="132" viewBox="0 0 132 132" fill="none" xmlns="http://www.w3.org/2000/svg">
<mask id="mask0_1146_354" style="mask-type:alpha" maskUnits="userSpaceOnUse" x="0" y="0" width="132" height="132">
<rect width="132" height="132" fill="#D9D9D9"/>
</mask>
<g mask="url(#mask0_1146_354)">
<path d="M86.4691 44.1979C87.7227 43.4588 89.2788 43.4588 90.5324 44.1979L106.884 53.8394C108.104 54.5586 108.852 55.8691 108.852 57.285V76.715C108.852 78.1309 108.104 79.4414 106.884 80.1606L90.5324 89.8021C89.2788 90.5412 87.7227 90.5412 86.4691 89.8021L70.1175 80.1606C68.8977 79.4414 68.1491 78.1309 68.1491 76.715V57.285C68.1491 55.8691 68.8977 54.5586 70.1175 53.8394L86.4691 44.1979Z" fill="#F5F7F8"/>
<path d="M17.125 42.5052C17.3571 42.3712 17.6429 42.3712 17.875 42.5052L21.6381 44.6778C21.8702 44.8118 22.0131 45.0594 22.0131 45.3274V49.6726C22.0131 49.9406 21.8702 50.1882 21.6381 50.3222L17.875 52.4948C17.6429 52.6288 17.3571 52.6288 17.125 52.4948L13.3619 50.3222C13.1298 50.1882 12.9869 49.9406 12.9869 49.6726V45.3274C12.9869 45.0594 13.1298 44.8118 13.3619 44.6778L17.125 42.5052Z" stroke="#EEBF4B" stroke-width="0.5"/>
<path d="M-6.51312 -6.8787C2.38488 -0.681523 11.2165 5.63431 19.9818 12.0688C28.6656 18.4493 37.3621 24.8522 45.8198 31.5969C53.5079 37.7351 60.6371 44.5817 65.8919 53.3309C70.7606 61.4668 74.0262 70.5498 75.4669 79.9634C76.182 84.6164 76.4381 89.3108 76.2308 93.9648C76.126 96.3314 75.8909 98.6807 75.5268 101C75.1775 103.253 74.7871 105.624 73.7091 107.58C72.7585 109.313 71.0822 110.604 69.1209 110.432C68.6792 110.403 68.2428 110.272 67.8408 110.046C67.4389 109.821 67.0807 109.508 66.7902 109.127C66.4998 108.746 66.2838 108.306 66.1567 107.837C66.0296 107.368 65.9944 106.881 66.0534 106.408C66.3716 102.556 69.5531 100.131 72.6146 99.0034C75.864 97.9132 79.2565 97.3055 82.7041 97.1963C86.3893 96.9941 90.0986 97.0841 93.8032 97.4655C100.805 98.1571 107.7 100.295 114.117 103.763C127.513 111.022 135.296 121.314 143.202 134.818C143.405 135.164 142.148 133.591 143.202 135.483C143.638 136.276 144.303 134.946 143.867 134.153C141.872 127.501 131.773 113.233 118.018 104.501C111.488 100.335 104.333 97.5987 96.9771 96.4545C89.5528 95.3635 81.7036 95.1108 74.5426 96.9269C71.3913 97.7209 68.2781 99.0482 66.3622 101.961C65.3226 103.538 64.5048 105.572 64.8372 107.618C64.9738 108.516 65.3435 109.367 65.9018 110.069C66.4601 110.77 67.1832 111.293 67.984 111.572C68.829 111.829 69.7045 111.883 70.5487 111.731C71.393 111.578 72.1854 111.223 72.87 110.691C74.4977 109.474 75.431 107.45 75.9941 105.414C77.2775 100.849 77.6129 95.7308 77.6189 90.9101C77.6288 80.952 75.5851 70.9876 71.6387 61.7526C67.6923 52.5175 61.944 44.2476 54.818 37.5535C50.8224 33.8627 46.661 30.3963 42.3518 27.1693C37.8666 23.7184 33.3671 20.3112 28.8534 16.9478C19.6713 10.0755 10.3994 3.342 1.03776 -3.25257C-1.27191 -4.88758 -3.58817 -6.51184 -5.91099 -8.12534C-6.65303 -8.62191 -7.19386 -7.40697 -6.48071 -6.90819L-6.51312 -6.8787Z" fill="#DBE0E5"/>
<path d="M39 44.1547C40.2376 43.4402 41.7624 43.4402 43 44.1547L59.7846 53.8453C61.0222 54.5598 61.7846 55.8803 61.7846 57.3094V76.6906C61.7846 78.1197 61.0222 79.4402 59.7846 80.1547L43 89.8453C41.7624 90.5598 40.2376 90.5598 39 89.8453L22.2154 80.1547C20.9778 79.4402 20.2154 78.1197 20.2154 76.6906V57.3094C20.2154 55.8803 20.9778 54.5598 22.2154 53.8453L39 44.1547Z" fill="#F5F7F8"/>
<path d="M103.625 77.9094L107.699 93.9435C107.878 95.4198 108.969 95.2084 109.287 94.5377L111.59 89.6808C112.021 88.7749 112.831 88.1226 113.789 87.9112L118.918 86.786C119.628 86.6303 120.058 85.6775 118.744 85.0537L104.642 77.0906C104.104 76.7869 103.474 77.294 103.628 77.9066L103.625 77.9094Z" fill="#FFC857"/>
<path fill-rule="evenodd" clip-rule="evenodd" d="M103.532 78.2443C103.92 77.9686 104.464 77.9046 104.946 78.1705L119.053 85.959C119.526 86.2263 119.902 86.6679 119.983 87.208C120.07 87.7868 119.796 88.3258 119.263 88.6788L119.168 88.7417L113.928 89.8659C113.153 90.0332 112.495 90.5501 112.145 91.2705C112.145 91.2705 112.145 91.2704 112.145 91.2705C112.145 91.2706 112.145 91.2708 112.144 91.2709L109.842 96.0192C109.842 96.0193 109.842 96.0191 109.842 96.0192C109.589 96.5398 109.008 96.9386 108.371 96.8495C107.663 96.7506 107.235 96.1267 107.12 95.2908L103.054 79.6455L103.041 79.593C102.897 79.0323 103.137 78.525 103.532 78.2443ZM104.205 79.2523C104.204 79.2547 104.2 79.2658 104.207 79.2944L104.208 79.2965L104.221 79.3499L108.304 95.0623L108.309 95.1014C108.345 95.3918 108.42 95.5381 108.469 95.6024C108.509 95.6553 108.534 95.6573 108.537 95.6576C108.537 95.6576 108.537 95.6576 108.537 95.6576C108.549 95.6593 108.585 95.6587 108.636 95.6285C108.686 95.5984 108.732 95.5502 108.759 95.4945L111.062 90.7449C111.573 89.6939 112.535 88.9353 113.675 88.6894L118.677 87.6162C118.733 87.5675 118.762 87.5254 118.776 87.4969C118.794 87.4593 118.799 87.4247 118.793 87.3866C118.78 87.3028 118.7 87.1429 118.463 87.0084L104.364 79.2242C104.364 79.2242 104.364 79.2242 104.364 79.2242C104.308 79.1933 104.26 79.2033 104.229 79.2255C104.213 79.2365 104.207 79.2473 104.205 79.2523C104.205 79.2523 104.205 79.2524 104.205 79.2523Z" fill="#292C32"/>
<path fill-rule="evenodd" clip-rule="evenodd" d="M76.7517 72.1423V60.8737C76.7517 60.3046 77.0595 59.7679 77.5624 59.4753L87.294 53.8328C87.7969 53.5401 88.4133 53.5401 88.9158 53.8328L98.6474 59.459C99.1503 59.7517 99.4585 60.2883 99.4585 60.8737V72.1423C99.4585 72.7276 99.1503 73.2643 98.6474 73.5572L92.9619 76.8442L92.9698 76.8421L92.8197 76.9264L92.5086 77.1059C92.2967 77.2571 92.1587 77.4993 92.1587 77.7689V78.2241L92.1541 78.203L92.1441 79.5576L92.1604 81.9968L87.3682 79.224C87.3432 79.2111 87.3186 79.1974 87.294 79.1833L77.5624 73.5572C77.0595 73.2643 76.7517 72.7276 76.7517 72.1423ZM86.5141 61.3782C85.8656 60.744 84.8276 60.744 84.1787 61.3782C83.4814 62.0449 83.4814 63.1506 84.1787 63.8173C84.8276 64.4515 85.8656 64.4515 86.5141 63.8173C86.5366 63.7958 86.5583 63.7739 86.5796 63.7515L91.0244 66.3213L91.041 66.312C90.843 66.909 90.9889 67.5934 91.4785 68.0615C92.1274 68.6956 93.1654 68.6956 93.8143 68.0615C94.5116 67.3948 94.5116 66.289 93.8143 65.6223C93.1654 64.9882 92.1274 64.9882 91.4785 65.6223C91.4706 65.6299 91.4631 65.6374 91.4552 65.645L86.9779 63.0415C87.1351 62.4657 86.9804 61.8239 86.5141 61.3782ZM91.3496 68.3863L86.9862 70.9139C87.1309 71.4823 86.9737 72.1107 86.5149 72.549C85.8665 73.1833 84.8284 73.1833 84.1795 72.549C83.4823 71.8824 83.4823 70.7767 84.1795 70.11C84.8284 69.4758 85.8665 69.4758 86.5149 70.11C86.545 70.1384 86.5733 70.1676 86.6004 70.1976L90.5385 67.931L91.3496 68.3863Z" fill="#0F2B46"/>
</g>
<g clip-path="url(#clip0_1146_354)">
<path d="M50.0312 81H32.9688C31.8859 81 31 80.1102 31 79.0227V53.9773C31 52.8898 31.8859 52 32.9688 52H44.7812L52 59.25V79.0227C52 80.1102 51.1141 81 50.0312 81Z" fill="#3086F6"/>
<path d="M44.7812 52L52 59.25H44.7812V52Z" fill="#0C67D6"/>
<path d="M47.4062 64.8523H35.5938V63.2046H47.4062V64.8523ZM47.4062 67.1591H35.5938V68.8068H47.4062V67.1591ZM44.125 71.1136H35.5938V72.7614H44.125V71.1136Z" fill="#FDFFFF"/>
</g>
<defs>
<clipPath id="clip0_1146_354">
<rect width="21" height="29" fill="white" transform="translate(31 52)"/>
</clipPath>
</defs>
</svg>
