<svg width="396" height="64" viewBox="0 0 396 64" fill="none" xmlns="http://www.w3.org/2000/svg" preserveAspectRatio="none">
	<path d="M25.4088 12.2252L25.5368 12.1998C119.268 0.362864 171.342 -0.822238 263.585 0.361346C355.829 1.54493 380.559 15.1506 390.049 25.2159C394.512 29.9502 396 35.8681 396 39.4189C396 42.9697 391.882 41.7897 388.555 41.7882C384.098 41.7861 382.61 44.1532 376.652 44.1553C370.695 44.1574 275.482 45.3389 275.482 45.3389C222.913 46.5225 117.787 50.0712 67.1953 58.3583C26.1934 65.0747 15.1159 66.6455 9.17092 58.3583C3.22594 50.0712 1.56287 44.1532 0.240669 34.6866C-2.13129 17.7041 13.5249 14.5894 25.4088 12.2252Z" fill="#FF9780" />
</svg>
