<svg width="534" height="316" viewBox="0 0 534 316" fill="none" xmlns="http://www.w3.org/2000/svg">
<g filter="url(#filter0_dd_4505_218)">
<rect x="17" y="15" width="500" height="279" rx="6" fill="white"/>
<rect x="17.5" y="15.5" width="499" height="278" rx="5.5" stroke="#DBE0E5"/>
</g>
<g filter="url(#filter1_dd_4505_218)">
<rect x="309.5" y="224.5" width="187" height="49" rx="24.5" fill="white" stroke="#C1C7D0"/>
<circle cx="334" cy="249" r="22" fill="white"/>
<circle cx="380" cy="249" r="22" fill="#DBE0E5"/>
<circle cx="426" cy="249" r="22" fill="white"/>
<circle cx="472" cy="249" r="22" fill="white"/>
<path fill-rule="evenodd" clip-rule="evenodd" d="M459.143 254.999V241.572C459.143 240.894 459.507 240.254 460.102 239.905L471.612 233.182C472.207 232.833 472.936 232.833 473.531 233.182L485.041 239.886C485.636 240.235 486 240.874 486 241.572V254.999C486 255.696 485.636 256.336 485.041 256.685L478.316 260.601L478.325 260.599L478.148 260.699L477.78 260.913C477.529 261.093 477.366 261.382 477.366 261.703V262.246L477.36 262.221L477.349 263.835L477.368 266.741L471.7 263.437C471.671 263.422 471.641 263.405 471.612 263.388L460.102 256.685C459.507 256.336 459.143 255.696 459.143 254.999ZM470.69 242.173C469.923 241.417 468.695 241.417 467.928 242.173C467.103 242.967 467.103 244.285 467.928 245.079C468.695 245.835 469.923 245.835 470.69 245.079C470.717 245.054 470.742 245.027 470.767 245.001L476.025 248.063L476.044 248.052C475.81 248.763 475.983 249.579 476.562 250.136C477.329 250.892 478.557 250.892 479.324 250.136C480.149 249.342 480.149 248.024 479.324 247.23C478.557 246.474 477.329 246.474 476.562 247.23C476.553 247.239 476.543 247.248 476.534 247.257L471.239 244.155C471.424 243.469 471.242 242.704 470.69 242.173ZM476.409 250.523L471.248 253.535C471.419 254.212 471.234 254.961 470.691 255.484C469.924 256.239 468.696 256.239 467.929 255.484C467.104 254.689 467.104 253.372 467.929 252.577C468.696 251.822 469.924 251.822 470.691 252.577C470.726 252.611 470.76 252.646 470.792 252.682L475.45 249.981L476.409 250.523Z" fill="#0F2B46"/>
<path fill-rule="evenodd" clip-rule="evenodd" d="M389.5 237C389.102 237 388.72 237.158 388.439 237.439L386.897 238.983L389.018 241.104L390.561 239.561C390.842 239.28 391 238.898 391 238.5C391 238.102 390.842 237.721 390.561 237.439C390.28 237.158 389.898 237 389.5 237ZM387.604 242.518L385.483 240.397L374.281 251.598C374.281 251.598 374.281 251.598 374.281 251.598C373.694 252.185 373.262 252.91 373.025 253.706L372.486 255.514L374.294 254.975C375.09 254.738 375.815 254.307 376.402 253.72C376.402 253.72 376.402 253.72 376.402 253.72L387.604 242.518ZM387.025 236.025C387.681 235.369 388.572 235 389.5 235C390.428 235 391.319 235.369 391.975 236.025C392.632 236.682 393 237.572 393 238.5C393 239.429 392.632 240.319 391.975 240.975L377.816 255.134C376.994 255.956 375.98 256.56 374.866 256.892C374.865 256.892 374.866 256.892 374.866 256.892L371.286 257.959C370.934 258.064 370.553 257.967 370.293 257.707C370.033 257.448 369.937 257.067 370.042 256.715L371.108 253.135C371.108 253.135 371.108 253.135 371.108 253.135C371.44 252.021 372.044 251.006 372.866 250.184L387.025 236.025ZM370 242C369.47 242 368.961 242.211 368.586 242.586C368.211 242.961 368 243.47 368 244V258C368 258.531 368.211 259.039 368.586 259.415C368.961 259.79 369.47 260 370 260H384C384.53 260 385.039 259.79 385.414 259.415C385.789 259.039 386 258.531 386 258V251.667C386 251.115 386.448 250.667 387 250.667C387.552 250.667 388 251.115 388 251.667V258C388 259.061 387.579 260.079 386.828 260.829C386.078 261.579 385.061 262 384 262H370C368.939 262 367.922 261.579 367.172 260.829C366.421 260.079 366 259.061 366 258V244C366 242.939 366.421 241.922 367.172 241.172C367.922 240.422 368.939 240 370 240H376.333C376.886 240 377.333 240.448 377.333 241C377.333 241.553 376.886 242 376.333 242H370Z" fill="#242B34"/>
<path fill-rule="evenodd" clip-rule="evenodd" d="M422.346 235C422.92 235 423.385 235.465 423.385 236.038V238.123C424.609 238.141 425.826 238.192 427.033 238.276C428.293 238.361 429.544 238.482 430.782 238.637C431.352 238.708 431.755 239.227 431.684 239.796C431.613 240.365 431.094 240.769 430.525 240.698C429.612 240.584 428.693 240.489 427.768 240.413C426.95 243.612 425.539 246.572 423.659 249.17C424.096 249.699 424.557 250.21 425.04 250.701C425.442 251.11 425.437 251.768 425.028 252.17C424.619 252.572 423.962 252.567 423.56 252.158C423.139 251.731 422.735 251.29 422.346 250.836C420.171 253.377 417.514 255.492 414.515 257.041C414.006 257.304 413.379 257.104 413.116 256.594C412.853 256.085 413.053 255.458 413.562 255.195C416.445 253.707 418.985 251.648 421.034 249.17C419.829 247.505 418.823 245.7 418.04 243.79C417.823 243.259 418.076 242.653 418.607 242.435C419.138 242.218 419.744 242.472 419.962 243.002C420.601 244.56 421.4 246.043 422.346 247.426C423.821 245.27 424.95 242.859 425.657 240.274C424.56 240.22 423.456 240.192 422.346 240.192C419.612 240.191 416.88 240.36 414.167 240.698C413.598 240.769 413.079 240.365 413.008 239.796C412.937 239.227 413.341 238.708 413.91 238.637C416.365 238.332 418.835 238.16 421.308 238.123V236.038C421.308 235.465 421.773 235 422.346 235ZM431.692 244.346C432.096 244.346 432.463 244.58 432.633 244.945L439.902 260.522C440.145 261.042 439.92 261.66 439.4 261.902C438.881 262.145 438.263 261.92 438.02 261.4L436.362 257.846H427.023L425.364 261.4C425.122 261.92 424.504 262.145 423.984 261.902C423.464 261.66 423.24 261.042 423.482 260.522L430.751 244.945C430.922 244.58 431.289 244.346 431.692 244.346ZM427.992 255.769H435.392L431.692 247.84L427.992 255.769Z" fill="#242B34"/>
<path fill-rule="evenodd" clip-rule="evenodd" d="M333.63 233C334.254 233 334.76 233.506 334.76 234.13V248.63C334.76 249.254 334.254 249.76 333.63 249.76C333.006 249.76 332.5 249.254 332.5 248.63V234.13C332.5 233.506 333.006 233 333.63 233ZM324.176 237.578C324.617 238.019 324.617 238.734 324.176 239.176C322.306 241.046 321.033 243.428 320.517 246.021C320.001 248.615 320.266 251.303 321.278 253.746C322.289 256.189 324.003 258.277 326.202 259.747C328.401 261.216 330.986 262 333.63 262C336.274 262 338.859 261.216 341.058 259.747C343.257 258.277 344.97 256.189 345.982 253.746C346.994 251.303 347.259 248.615 346.743 246.021C346.227 243.428 344.954 241.046 343.084 239.176C342.643 238.734 342.643 238.019 343.084 237.578C343.525 237.137 344.241 237.137 344.682 237.578C346.868 239.764 348.356 242.549 348.959 245.581C349.563 248.612 349.253 251.755 348.07 254.611C346.887 257.467 344.884 259.908 342.313 261.626C339.743 263.343 336.721 264.26 333.63 264.26C330.539 264.26 327.517 263.343 324.946 261.626C322.376 259.908 320.373 257.467 319.19 254.611C318.007 251.755 317.697 248.612 318.3 245.581C318.903 242.549 320.392 239.764 322.578 237.578C323.019 237.137 323.734 237.137 324.176 237.578Z" fill="#242B34"/>
</g>
<rect x="49" y="135" width="436" height="8" rx="4" fill="#DBE0E5"/>
<rect x="49" y="151" width="406.933" height="8" rx="4" fill="#DBE0E5"/>
<rect x="49" y="167" width="417.959" height="8" rx="4" fill="#DBE0E5"/>
<rect x="49" y="183" width="199.457" height="8" rx="4" fill="#DBE0E5"/>
<rect x="49" y="225" width="90.2069" height="8" rx="4" fill="#DBE0E5"/>
<rect x="49" y="110" width="90.2069" height="8" rx="4" fill="#DBE0E5"/>
<rect x="49" y="42" width="250" height="8" rx="4" fill="#F5F7F8"/>
<rect x="49" y="66" width="155" height="8" rx="4" fill="#F5F7F8"/>
<g style="mix-blend-mode:multiply">
<g style="mix-blend-mode:multiply" opacity="0.4">
<rect x="47" y="132" width="440" height="14" fill="#3498C2"/>
</g>
</g>
<g style="mix-blend-mode:multiply">
<g style="mix-blend-mode:multiply" opacity="0.4">
<rect x="47" y="148" width="411" height="14" fill="#3498C2"/>
</g>
</g>
<g style="mix-blend-mode:multiply">
<g style="mix-blend-mode:multiply" opacity="0.4">
<rect x="47" y="164" width="422" height="14" fill="#3498C2"/>
</g>
</g>
<g style="mix-blend-mode:multiply">
<g style="mix-blend-mode:multiply" opacity="0.4">
<rect x="47" y="180" width="204" height="14" fill="#3498C2"/>
</g>
</g>
<line x1="49" y1="57.5" x2="485" y2="57.5" stroke="#DBE0E5"/>
<line x1="49" y1="81.5" x2="485" y2="81.5" stroke="#DBE0E5"/>
<path d="M393 262.962L394.374 266.489L414.842 273.129C414.842 273.129 416.65 272.714 415.637 270.916L394.446 262.132C394.446 262.132 393.723 261.855 393.362 262.201C393 262.547 393 262.962 393 262.962Z" fill="white"/>
<path d="M415.855 275.55L414.191 275.896C410.069 276.795 406.886 279.839 405.946 283.781L405.585 285.372C405.295 286.686 403.415 286.825 402.836 285.58L394.085 265.729C393.796 264.968 394.519 264.276 395.242 264.553L416.072 272.922C417.446 273.475 417.229 275.274 415.855 275.55Z" fill="#EEBF4B"/>
<path d="M414.842 273.06L413.178 273.406C409.056 274.305 405.874 277.348 404.933 281.291L404.572 282.882C404.283 284.196 402.402 284.334 401.824 283.089L393.072 263.169C392.783 262.477 393.506 261.786 394.23 262.062L415.059 270.432C416.433 270.985 416.216 272.783 414.842 273.06Z" stroke="#161C23" stroke-width="1.5" stroke-miterlimit="10"/>
<defs>
<filter id="filter0_dd_4505_218" x="0" y="0" width="534" height="313" filterUnits="userSpaceOnUse" color-interpolation-filters="sRGB">
<feFlood flood-opacity="0" result="BackgroundImageFix"/>
<feColorMatrix in="SourceAlpha" type="matrix" values="0 0 0 0 0 0 0 0 0 0 0 0 0 0 0 0 0 0 127 0" result="hardAlpha"/>
<feOffset dy="2"/>
<feGaussianBlur stdDeviation="4"/>
<feComposite in2="hardAlpha" operator="out"/>
<feColorMatrix type="matrix" values="0 0 0 0 0.0862745 0 0 0 0 0.109804 0 0 0 0 0.137255 0 0 0 0.1 0"/>
<feBlend mode="normal" in2="BackgroundImageFix" result="effect1_dropShadow_4505_218"/>
<feColorMatrix in="SourceAlpha" type="matrix" values="0 0 0 0 0 0 0 0 0 0 0 0 0 0 0 0 0 0 127 0" result="hardAlpha"/>
<feMorphology radius="1" operator="dilate" in="SourceAlpha" result="effect2_dropShadow_4505_218"/>
<feOffset dy="2"/>
<feGaussianBlur stdDeviation="8"/>
<feComposite in2="hardAlpha" operator="out"/>
<feColorMatrix type="matrix" values="0 0 0 0 0.0862745 0 0 0 0 0.109804 0 0 0 0 0.137255 0 0 0 0.05 0"/>
<feBlend mode="normal" in2="effect1_dropShadow_4505_218" result="effect2_dropShadow_4505_218"/>
<feBlend mode="normal" in="SourceGraphic" in2="effect2_dropShadow_4505_218" result="shape"/>
</filter>
<filter id="filter1_dd_4505_218" x="275" y="198" width="256" height="118" filterUnits="userSpaceOnUse" color-interpolation-filters="sRGB">
<feFlood flood-opacity="0" result="BackgroundImageFix"/>
<feColorMatrix in="SourceAlpha" type="matrix" values="0 0 0 0 0 0 0 0 0 0 0 0 0 0 0 0 0 0 127 0" result="hardAlpha"/>
<feOffset dy="4"/>
<feGaussianBlur stdDeviation="8"/>
<feComposite in2="hardAlpha" operator="out"/>
<feColorMatrix type="matrix" values="0 0 0 0 0.0862745 0 0 0 0 0.109804 0 0 0 0 0.137255 0 0 0 0.1 0"/>
<feBlend mode="normal" in2="BackgroundImageFix" result="effect1_dropShadow_4505_218"/>
<feColorMatrix in="SourceAlpha" type="matrix" values="0 0 0 0 0 0 0 0 0 0 0 0 0 0 0 0 0 0 127 0" result="hardAlpha"/>
<feMorphology radius="2" operator="dilate" in="SourceAlpha" result="effect2_dropShadow_4505_218"/>
<feOffset dy="8"/>
<feGaussianBlur stdDeviation="16"/>
<feComposite in2="hardAlpha" operator="out"/>
<feColorMatrix type="matrix" values="0 0 0 0 0.0862745 0 0 0 0 0.109804 0 0 0 0 0.137255 0 0 0 0.05 0"/>
<feBlend mode="normal" in2="effect1_dropShadow_4505_218" result="effect2_dropShadow_4505_218"/>
<feBlend mode="normal" in="SourceGraphic" in2="effect2_dropShadow_4505_218" result="shape"/>
</filter>
</defs>
</svg>
