<svg width="101" height="43" viewBox="0 0 101 43" fill="none" xmlns="http://www.w3.org/2000/svg">
<path d="M14.5594 2.22873C15.4826 2.22873 40.4693 2.18281 42.5028 2.18281C44.5363 2.18281 44.3921 1.36884 44.3921 0.975641C44.3921 0.582451 43.9669 0 43.0111 0C42.0552 0 3.649 0.0125546 2.14567 0.0125546C0.642334 0.0125546 0 0.295019 0 1.11407C0 1.96765 0.40191 2.24019 2.45265 2.24019C4.69438 2.24019 8.46105 2.22007 9.17528 2.22007C9.88953 2.22007 10.5963 2.24959 10.5963 2.76728C10.5963 3.28497 10.3944 3.67598 9.69004 5.01031C8.98556 6.34463 0.732694 21.0075 0.732694 23.2424C0.732694 24.114 1.33049 24.3938 1.92412 24.3938C2.44244 24.3938 2.85029 23.9401 3.43779 22.5863C5.45211 17.9445 11.8799 5.975 12.6193 4.57426C13.3586 3.17352 13.6362 2.22873 14.5594 2.22873Z" fill="#FF7442"/>
<path d="M99.812 14.5059C99.0502 14.6884 96.757 17.2621 92.8618 17.2621C92.5229 17.2625 92.1842 17.2438 91.8474 17.2061C92.3167 16.1497 92.5673 15.0099 92.5842 13.8548C92.5842 9.20109 89.5074 8.98174 88.4426 8.98174C87.3779 8.98174 84.8881 9.91284 84.8881 13.5737C84.8881 15.8148 86.3934 17.6254 88.6534 18.5941C87.2294 20.5264 85.1127 22.0916 82.8936 22.0916C80.6289 22.0916 79.7298 19.9661 79.7298 18.517C79.7298 13.8712 83.4527 12.5791 83.5843 11.5741C83.7002 10.689 83.1353 10.3486 82.4774 10.3486C81.3895 10.3486 77.8518 13.4043 77.3809 17.8714C75.757 18.7985 72.3713 20.7376 68.7372 22.8588C70.3021 19.7969 71.6138 17.2382 72.0919 16.3515C73.396 13.9318 75.0759 11.1644 75.1718 10.3263C75.201 10.1841 75.1967 10.0372 75.1593 9.89688C75.1219 9.7566 75.0523 9.62694 74.9561 9.51792C74.8599 9.4089 74.7396 9.32357 74.6048 9.26859C74.4698 9.21363 74.3239 9.19052 74.1785 9.20109C73.0579 9.20109 72.6282 10.7904 72.2007 10.7904C71.7731 10.7904 70.063 8.94465 67.3092 8.94465C64.7296 8.94465 60.4726 10.9416 57.9593 16.8821C55.962 18.6273 51.719 22.0989 49.5696 22.0989C49.0329 22.0989 48.7009 21.8959 48.7009 21.1021C48.7009 19.6679 52.6732 14.6777 52.6732 11.8145C52.6732 9.94829 51.3366 8.94457 49.7265 8.94457C47.0788 8.94457 42.9036 12.5959 38.7184 16.8949C39.5279 15.3131 40.5603 13.306 40.916 12.6591C41.5323 11.5384 41.92 10.7846 41.92 10.2549C41.9237 10.1128 41.8976 9.97151 41.8436 9.83993C41.7897 9.70825 41.709 9.58919 41.6065 9.49021C41.5041 9.3912 41.3821 9.31438 41.2484 9.26458C41.1146 9.21479 40.9719 9.19309 40.8294 9.20087C40.1091 9.20087 39.615 10.2752 39.0541 11.2944C38.6349 12.0562 37.5381 14.1141 37.0109 15.1049C34.6671 17.1984 28.934 22.1067 26.7063 22.1067C24.3796 22.1067 25.6634 19.3102 26.1199 18.1308C27.7543 13.9074 30.5002 11.3934 30.5002 10.1466C30.4954 10.0167 30.4647 9.88904 30.4099 9.77113C30.3553 9.65312 30.2776 9.54703 30.1814 9.4591C30.0853 9.37117 29.9726 9.3031 29.8498 9.25881C29.7271 9.21453 29.5968 9.19491 29.4663 9.20109C28.2762 9.20109 27.946 10.5562 27.4392 10.5562C26.9325 10.5562 25.8773 8.94482 23.2273 8.94482C18.103 8.94482 12.1064 14.5724 12.1064 20.8454C12.1064 22.9668 13.2025 24.4002 15.5098 24.4002C18.4587 24.4002 21.5931 21.6178 23.3434 19.665C22.8465 21.5994 22.749 24.3938 26.335 24.3938C29.1497 24.3938 33.091 20.7687 35.5699 18.1514C34.5758 20.0604 33.154 22.8586 33.154 23.2489C33.154 23.8489 33.2321 24.4 33.9863 24.4C34.7405 24.4 35.6117 23.8005 36.7178 22.1208C37.8239 20.4412 46.2541 11.2268 49.4299 11.2268C52.6057 11.2268 46.2634 18.9412 46.2634 21.8503C46.2634 23.9826 47.4563 24.4 48.7837 24.4C51.3837 24.4 54.4219 22.4235 57.1018 19.6287C57.0366 21.2495 57.274 24.4 60.1064 24.4C62.7112 24.4 65.2288 22.6283 66.8243 21.2135C66.3478 22.2141 65.6871 23.5982 64.9828 25.0653C61.8926 26.8958 58.9985 28.652 57.237 29.8198C51.8872 33.3669 49.3353 35.578 49.3353 39.1223C49.3353 42.2571 51.5228 42.9999 53.4084 42.9999C56.5156 42.9999 59.4221 40.7899 61.3496 37.2133C62.3407 35.3742 64.808 30.5497 67.1488 25.9679C70.6262 23.76 74.3454 21.5198 77.4193 19.9896C77.6871 21.3322 78.7009 24.4478 82.345 24.4478C85.3313 24.4478 88.7097 22.1821 90.7419 19.2056C91.3586 19.3121 91.9836 19.3652 92.6096 19.3644C96.2472 19.3644 100.867 16.9392 100.867 15.442C100.867 14.852 100.543 14.3309 99.812 14.5059ZM23.2779 17.1686C21.9106 18.4615 18.4968 21.6395 16.3813 21.6395C15.3119 21.6395 14.7246 21.1446 14.7246 20.0211C14.7246 16.8983 18.5565 11.4154 23.0946 11.4154C24.8172 11.4154 25.537 12.3388 25.537 13.4908C25.5369 14.5154 24.6453 15.8757 23.2779 17.1686ZM61.3487 32.4683C58.961 36.9311 56.6259 40.6783 53.9087 40.6783C52.0952 40.6783 51.7362 39.8386 51.7362 38.7171C51.7362 36.8487 53.611 34.7919 56.6217 32.8727C57.8102 32.1152 60.3228 30.4071 63.3687 28.4099C62.5039 30.19 61.738 31.741 61.3487 32.4683ZM68.3263 17.4707C66.9515 18.7705 63.3561 21.6989 61.0395 21.6989C59.9643 21.6989 59.6939 20.9783 59.6939 19.8488C59.6939 16.4588 63.6538 11.3888 67.3764 11.3888C68.8457 11.3888 70.4584 12.1219 70.4584 13.9234C70.4584 14.791 69.701 16.1709 68.3263 17.4707ZM89.7839 16.6743C87.9381 15.877 87.0132 14.4228 87.0132 13.291C87.0132 11.6461 87.9917 11.1033 88.7227 11.1033C89.4538 11.1033 90.4411 11.8992 90.4411 14.008C90.409 14.9324 90.1852 15.8401 89.7839 16.6743Z" fill="#FF7442"/>
</svg>
