<svg width="32" height="34" viewBox="0 0 32 34" fill="none" xmlns="http://www.w3.org/2000/svg">
<path d="M26.4395 16.7299C26.2448 16.7448 25.973 16.4817 26.0001 16.2217C26.0084 16.1413 26.1385 16.0261 26.2291 16.0093C26.5092 15.9586 26.7227 16.1204 26.7404 16.3755C26.7529 16.5492 26.705 16.7041 26.4384 16.7289L26.4395 16.7299Z" fill="#2DA75E"/>
<path d="M22 19.6536C21.9892 19.6676 21.9753 19.6983 21.9518 19.7133C21.9281 19.7286 21.8942 19.7377 21.8663 19.7342C21.6351 19.7054 21.4372 19.8108 21.2402 19.9048C20.881 20.0757 20.698 20.381 20.646 20.778C20.639 20.8309 20.634 20.8863 20.6137 20.9343C20.601 20.964 20.5561 21.0048 20.5355 20.9995C20.4978 20.9901 20.4674 20.9503 20.4348 20.9222C20.43 20.918 20.4278 20.9076 20.4287 20.9004C20.4588 20.6368 20.2805 20.4691 20.1529 20.2825C19.9888 20.0431 19.7491 19.8868 19.5141 19.7329C19.4292 19.6771 19.3155 19.6676 19.2148 19.6373C19.1647 19.6223 19.109 19.6177 19.0656 19.5916C19.0339 19.5727 18.9943 19.5202 19.0007 19.4934C19.0092 19.4582 19.0609 19.4066 19.0913 19.4083C19.2477 19.4181 19.3858 19.3502 19.5309 19.3143C19.8951 19.224 20.1529 19.0038 20.2729 18.6335C20.3201 18.4877 20.3461 18.3347 20.3774 18.184C20.393 18.1086 20.3904 18.0222 20.4839 18.001C20.5336 17.9896 20.6048 18.0806 20.5982 18.1771C20.5751 18.5118 20.7562 18.7539 20.9412 18.9891C21.1724 19.2837 21.4717 19.467 21.8445 19.5071C21.9401 19.5175 22.0054 19.5743 21.9997 19.6536L22 19.6536ZM21.3241 19.6092C21.3064 19.588 21.2988 19.5724 21.2864 19.5655C20.9532 19.376 20.6891 19.1199 20.5374 18.7526C20.5298 18.7346 20.5048 18.7242 20.488 18.7102C20.4785 18.731 20.4683 18.7516 20.4595 18.7728C20.3569 19.0224 20.2115 19.2357 19.9749 19.3688C19.909 19.406 19.8374 19.4314 19.7709 19.4676C19.7279 19.4911 19.6902 19.5244 19.6499 19.5531C19.6838 19.5802 19.7149 19.6121 19.7516 19.6337C20.0398 19.802 20.277 20.0264 20.4471 20.3194C20.4927 20.3977 20.5149 20.3804 20.5443 20.3184C20.6527 20.0904 20.7961 19.893 21.0153 19.7671C21.1002 19.7182 21.193 19.6839 21.2813 19.6415C21.2969 19.634 21.3092 19.6206 21.3238 19.6092L21.3241 19.6092Z" fill="#2DA75E" stroke="#2DA75E" stroke-width="0.2"/>
<path d="M31 3.75597C30.982 3.77935 30.9588 3.83045 30.9197 3.85546C30.8801 3.88101 30.8236 3.89624 30.7772 3.89026C30.3919 3.84241 30.0619 4.01802 29.7336 4.17461C29.135 4.4595 28.8299 4.9684 28.7434 5.63007C28.7317 5.71815 28.7233 5.81058 28.6895 5.8905C28.6684 5.93998 28.5934 6.00794 28.5591 5.99924C28.4963 5.98347 28.4456 5.91714 28.3913 5.87039C28.3834 5.86332 28.3797 5.84592 28.3812 5.83396C28.4314 5.39465 28.1342 5.1152 27.9215 4.8042C27.648 4.40513 27.2485 4.14471 26.8568 3.88808C26.7153 3.79511 26.5258 3.77935 26.358 3.72878C26.2746 3.70377 26.1817 3.69616 26.1093 3.65266C26.0565 3.62113 25.9906 3.5336 26.0011 3.48901C26.0154 3.43029 26.1014 3.34439 26.1521 3.34711C26.4129 3.36342 26.643 3.25033 26.8848 3.19053C27.4918 3.03992 27.9215 2.67293 28.1215 2.05584C28.2002 1.81281 28.2435 1.55782 28.2957 1.30663C28.3216 1.18104 28.3174 1.03696 28.4731 1.00162C28.556 0.982591 28.6747 1.13428 28.6636 1.29522C28.6251 1.85304 28.927 2.25646 29.2353 2.64847C29.6207 3.13942 30.1195 3.44497 30.7408 3.51185C30.9002 3.52925 31.0089 3.62385 30.9994 3.75597L31 3.75597ZM29.8735 3.68202C29.8439 3.64668 29.8313 3.62059 29.8107 3.60917C29.2554 3.29328 28.8151 2.86649 28.5623 2.25429C28.5496 2.22439 28.5079 2.20699 28.48 2.18361C28.4641 2.2184 28.4472 2.25266 28.4324 2.288C28.2614 2.70392 28.0191 3.0595 27.6248 3.28132C27.515 3.3433 27.3957 3.38571 27.2849 3.44606C27.2131 3.48521 27.1503 3.54066 27.0832 3.58851C27.1397 3.63364 27.1914 3.68692 27.2527 3.7228C27.733 4.00335 28.1284 4.37741 28.4119 4.86564C28.4879 4.99613 28.5248 4.96731 28.5739 4.86401C28.7544 4.48397 28.9936 4.15504 29.3588 3.94517C29.5003 3.86362 29.655 3.80653 29.8022 3.73585C29.8281 3.72335 29.8487 3.70105 29.873 3.68202L29.8735 3.68202Z" fill="#2DA75E" stroke="#2DA75E" stroke-width="0.2"/>
<path d="M3.99997 27.6536C3.9892 27.6676 3.97527 27.6983 3.95183 27.7133C3.92808 27.7286 3.89419 27.7377 3.86632 27.7342C3.63511 27.7054 3.43717 27.8108 3.24017 27.9048C2.88101 28.0757 2.69795 28.381 2.64601 28.778C2.63904 28.8309 2.63398 28.8863 2.61371 28.9343C2.60104 28.964 2.55606 29.0048 2.53548 28.9995C2.49779 28.9901 2.46738 28.9503 2.43476 28.9222C2.43001 28.918 2.42779 28.9076 2.42874 28.9004C2.45883 28.6368 2.28052 28.4691 2.15289 28.2825C1.98883 28.0431 1.74907 27.8868 1.51407 27.7329C1.42919 27.6771 1.31549 27.6676 1.21477 27.6373C1.16473 27.6223 1.10899 27.6177 1.0656 27.5916C1.03393 27.5727 0.99434 27.5202 1.00067 27.4934C1.00923 27.4582 1.06085 27.4066 1.09125 27.4083C1.24771 27.4181 1.3858 27.3502 1.53086 27.3143C1.89508 27.224 2.15289 27.0038 2.27292 26.6335C2.32011 26.4877 2.34608 26.3347 2.37744 26.184C2.39296 26.1086 2.39042 26.0222 2.48385 26.001C2.53358 25.9896 2.60484 26.0806 2.59819 26.1771C2.57507 26.5118 2.75623 26.7539 2.94119 26.9891C3.17239 27.2837 3.47169 27.467 3.84446 27.5071C3.94011 27.5175 4.00535 27.5743 3.99965 27.6536L3.99997 27.6536ZM3.3241 27.6092C3.30636 27.588 3.29876 27.5724 3.28641 27.5655C2.95323 27.376 2.68909 27.1199 2.53738 26.7526C2.52978 26.7346 2.50476 26.7242 2.48797 26.7102C2.47847 26.731 2.46833 26.7516 2.45947 26.7728C2.35685 27.0224 2.21148 27.2357 1.97489 27.3688C1.90901 27.406 1.83744 27.4314 1.77093 27.4676C1.72785 27.4911 1.69016 27.5244 1.64994 27.5531C1.68383 27.5802 1.71487 27.6121 1.75161 27.6337C2.03982 27.802 2.27704 28.0264 2.44711 28.3194C2.49272 28.3977 2.51489 28.3804 2.54435 28.3184C2.65266 28.0904 2.79613 27.893 3.0153 27.7671C3.10018 27.7182 3.19298 27.6839 3.28134 27.6415C3.29686 27.634 3.30921 27.6206 3.32378 27.6092L3.3241 27.6092Z" fill="#2DA75E" stroke="#2DA75E" stroke-width="0.2"/>
</svg>
