<svg width="25" height="26" viewBox="0 0 25 26" fill="none" xmlns="http://www.w3.org/2000/svg">
<path d="M8.00175 10.4095C7.97304 10.447 7.93588 10.5287 7.87338 10.5687C7.81004 10.6096 7.71967 10.634 7.64534 10.6244C7.0288 10.5479 6.50094 10.8288 5.97562 11.0794C5.01787 11.5352 4.52971 12.3494 4.3912 13.4081C4.37261 13.549 4.3591 13.6969 4.30505 13.8248C4.27127 13.904 4.15134 14.0127 4.09644 13.9988C3.99593 13.9736 3.91486 13.8674 3.82786 13.7926C3.8152 13.7813 3.80928 13.7535 3.81182 13.7343C3.89205 13.0314 3.41656 12.5843 3.07619 12.0867C2.6387 11.4482 1.99936 11.0315 1.37269 10.6209C1.14634 10.4722 0.843136 10.447 0.574561 10.3661C0.441118 10.326 0.292474 10.3139 0.176767 10.2443C0.0923093 10.1938 -0.0132628 10.0538 0.00362865 9.98242C0.0264322 9.88847 0.164098 9.75103 0.245177 9.75538C0.662397 9.78147 1.03063 9.60053 1.41745 9.50484C2.38871 9.26388 3.07619 8.67669 3.39629 7.68934C3.52213 7.3005 3.59138 6.89251 3.675 6.49061C3.71638 6.28966 3.70962 6.05914 3.95877 6.00259C4.09137 5.97215 4.2814 6.21485 4.26366 6.47234C4.20201 7.36487 4.68511 8.01034 5.17834 8.63755C5.79488 9.42307 6.593 9.91196 7.58707 10.019C7.84213 10.0468 8.01696 10.1982 8.00175 10.4095ZM6.19943 10.2912C6.15213 10.2347 6.13186 10.1929 6.09893 10.1747C5.21043 9.66926 4.50606 8.98638 4.10151 8.00686C4.08124 7.95902 4.01452 7.93118 3.96975 7.89377C3.94442 7.94944 3.91739 8.00425 3.89374 8.0608C3.6201 8.72628 3.23244 9.29519 2.60154 9.65011C2.42587 9.74928 2.235 9.81714 2.05763 9.9137C1.94277 9.97633 1.84227 10.0651 1.73501 10.1416C1.82538 10.2138 1.90815 10.2991 2.00612 10.3565C2.77468 10.8054 3.40727 11.4039 3.8608 12.185C3.98242 12.3938 4.04154 12.3477 4.12009 12.1824C4.40893 11.5744 4.79152 11.0481 5.37597 10.7123C5.60232 10.5818 5.84978 10.4904 6.08541 10.3774C6.1268 10.3574 6.16058 10.3217 6.19943 10.2912Z" fill="#2DA75E"/>
<path d="M0.441302 22.7299C0.246585 22.7448 -0.0251854 22.4817 0.00188752 22.2217C0.0102176 22.1413 0.140374 22.0261 0.230964 22.0093C0.511065 21.9586 0.724525 22.1204 0.742227 22.3755C0.754722 22.5492 0.706824 22.7041 0.44026 22.7289L0.441302 22.7299Z" fill="#2DA75E"/>
<path d="M15.4413 7.72987C15.2466 7.74475 14.9748 7.48173 15.0019 7.22167C15.0102 7.14128 15.1404 7.02614 15.231 7.00927C15.5111 6.95865 15.7245 7.12043 15.7422 7.37552C15.7547 7.54922 15.7068 7.70406 15.4403 7.72887L15.4413 7.72987Z" fill="#2DA75E"/>
<path d="M21.0022 9.34642C21.0129 9.33239 21.0269 9.30173 21.0503 9.28672C21.0741 9.27139 21.108 9.26226 21.1358 9.26585C21.367 9.29455 21.565 9.18919 21.762 9.09524C22.1211 8.9243 22.3042 8.61896 22.3561 8.22196C22.3631 8.16911 22.3682 8.11365 22.3884 8.0657C22.4011 8.03601 22.4461 7.99524 22.4667 8.00046C22.5044 8.00992 22.5348 8.04971 22.5674 8.07777C22.5721 8.08201 22.5744 8.09245 22.5734 8.09963C22.5433 8.36321 22.7216 8.53088 22.8493 8.71748C23.0133 8.95692 23.2531 9.11318 23.4881 9.26715C23.573 9.32293 23.6867 9.33239 23.7874 9.36273C23.8374 9.37774 23.8932 9.3823 23.9365 9.4084C23.9682 9.42732 24.0078 9.47984 24.0015 9.50659C23.9929 9.54182 23.9413 9.59337 23.9109 9.59173C23.7544 9.58195 23.6163 9.6498 23.4713 9.68568C23.1071 9.77605 22.8493 9.99624 22.7292 10.3665C22.682 10.5123 22.6561 10.6653 22.6247 10.816C22.6092 10.8914 22.6117 10.9778 22.5183 10.999C22.4686 11.0104 22.3973 10.9194 22.404 10.8229C22.4271 10.4882 22.2459 10.2461 22.061 10.0109C21.8298 9.71635 21.5305 9.53302 21.1577 9.49289C21.062 9.48245 20.9965 9.42569 21.0022 9.34642ZM21.678 9.39079C21.6958 9.41199 21.7034 9.42765 21.7157 9.4345C22.0489 9.62403 22.3131 9.88011 22.4648 10.2474C22.4724 10.2654 22.4974 10.2758 22.5142 10.2898C22.5237 10.269 22.5338 10.2484 22.5427 10.2272C22.6453 9.97765 22.7907 9.7643 23.0273 9.63121C23.0931 9.59402 23.1647 9.56857 23.2312 9.53236C23.2743 9.50888 23.312 9.4756 23.3522 9.44689C23.3183 9.41982 23.2873 9.38785 23.2505 9.36632C22.9623 9.19799 22.7251 8.97356 22.555 8.68061C22.5094 8.60232 22.4873 8.61961 22.4578 8.68159C22.3495 8.90962 22.206 9.10698 21.9868 9.2329C21.902 9.28183 21.8092 9.31608 21.7208 9.35849C21.7053 9.36599 21.6926 9.37937 21.678 9.39079Z" fill="#2DA75E" stroke="#2DA75E" stroke-width="0.2"/>
</svg>
